<svg width="362" height="252" viewBox="0 0 362 252" fill="none" xmlns="http://www.w3.org/2000/svg">
<g clip-path="url(#clip0_306_3984)">
<path d="M354.91 178.005L256.847 15.4704C254.002 10.7541 249.987 6.85198 245.192 4.14172C240.397 1.43147 234.984 0.00479758 229.475 -0.000230809C223.967 -0.00525919 218.551 1.41152 213.751 4.11302C208.951 6.81452 204.929 10.7093 202.076 15.4204L140.004 115.073C127.064 94.2425 118.133 79.0721 118.003 78.8921C115.836 75.2999 112.778 72.3286 109.125 70.266C105.472 68.2034 101.348 67.1195 97.1527 67.1195C92.9576 67.1195 88.8336 68.2034 85.1805 70.266C81.5274 72.3286 78.4692 75.2999 76.3022 78.8921L5.30027 196.565C1.96998 202.087 0.166091 208.394 0.0731225 214.841C-0.0198457 221.288 1.60144 227.645 4.77114 233.26C7.94085 238.875 12.5452 243.547 18.1132 246.799C23.6812 250.051 30.0131 251.765 36.4611 251.767H313.269C321.885 251.765 330.346 249.474 337.786 245.129C345.226 240.784 351.379 234.541 355.615 227.038C359.851 219.535 362.017 211.041 361.893 202.426C361.77 193.811 359.359 185.383 354.91 178.005Z" fill="#1E5E82"/>
<path d="M12.2199 229.066C9.75935 224.781 8.49807 219.912 8.56845 214.971C8.63884 210.03 10.0383 205.199 12.6199 200.985L83.6218 83.3122C85.0312 80.9945 87.0136 79.0786 89.3781 77.7491C91.7425 76.4195 94.4095 75.7212 97.1221 75.7212C99.8348 75.7212 102.502 76.4195 104.866 77.7491C107.231 79.0786 109.213 80.9945 110.623 83.3122C110.733 83.4822 120.733 100.443 134.913 123.183L127.713 134.574C64.2513 235.006 59.0611 243.217 36.4605 243.217C31.5219 243.251 26.665 241.955 22.3998 239.465C18.1345 236.976 14.6182 233.383 12.2199 229.066Z" fill="#81CCEA"/>
<path d="M348.17 222.836C344.716 229.054 339.652 234.227 333.509 237.813C327.366 241.4 320.371 243.266 313.259 243.217H62.532L62.882 242.926L63.262 242.596C63.872 242.066 64.492 241.516 65.122 240.926L65.482 240.576C66.1221 239.976 66.7721 239.336 67.4221 238.666L67.7621 238.306C68.4421 237.616 69.1221 236.886 69.7622 236.116L70.0422 235.806C70.7422 235.016 71.4522 234.196 72.1822 233.336L72.2822 233.226C85.0526 218.106 102.783 190.005 135.004 139.104L143.634 125.443L209.366 19.8905C211.453 16.4308 214.398 13.569 217.916 11.5824C221.434 9.59586 225.406 8.55199 229.446 8.55199C233.487 8.55199 237.459 9.59586 240.977 11.5824C244.495 13.569 247.44 16.4308 249.527 19.8905L347.59 182.415C351.306 188.48 353.321 195.434 353.423 202.546C353.525 209.658 351.71 216.667 348.17 222.836Z" fill="#D86E89"/>
</g>
<defs>
<clipPath id="clip0_306_3984">
<rect width="361.99" height="251.76" fill="white"/>
</clipPath>
</defs>
</svg>
